<svg width="346" height="56" viewBox="0 0 346 56" fill="none" xmlns="http://www.w3.org/2000/svg">
<path d="M83.4319 10.1833V18.6667L80.1366 15.3946C79.8713 15.1313 79.59 14.8918 79.3328 14.6444V10.5264C79.3328 6.4643 76.9216 4.03819 72.8385 4.03819H65.653C61.5057 4.03819 59.0945 6.4244 59.0945 10.5903V14.5247C58.789 14.812 58.4836 15.1153 58.1782 15.4345L55.0275 18.5869V10.2631C54.9873 6.79151 55.8312 4.18184 57.487 2.52188C59.1427 0.861907 61.787 0 65.3235 0H73.16C80.1767 0 83.4319 3.23215 83.4319 10.1833Z" fill="#EFF7FB"/>
<path d="M87.7898 26.4002L76.4187 15.0311C73.9215 12.6121 71.4808 11.3624 69.1451 11.3624C66.8095 11.3624 64.4416 12.5638 62.0493 14.9343L61.9039 15.0714L61.8231 15.1359L54.4606 22.546L50.6379 26.384C45.6676 31.4235 45.6676 35.9147 50.6379 40.9542L61.8473 52.2426C64.2718 54.7341 66.761 56 69.1209 56C71.4808 56 73.97 54.7341 76.5076 52.2265L87.8221 40.938C90.2952 38.4707 91.5478 36.0195 91.5478 33.6328C91.5478 31.2461 90.2467 28.8514 87.7898 26.4002ZM84.6622 38.2853L73.8164 49.0818C73.2288 49.7463 72.5131 50.2858 71.7119 50.6681C70.9107 51.0505 70.0405 51.2679 69.1532 51.3073C68.2662 51.2665 67.3965 51.0485 66.5955 50.6663C65.7945 50.284 65.0785 49.7452 64.49 49.0818L53.7413 38.2853C53.0827 37.7054 52.5469 37.0002 52.1653 36.211C51.7836 35.4217 51.5638 34.5644 51.5188 33.6893C51.5612 32.8113 51.7798 31.9507 52.1616 31.1585C52.5433 30.3663 53.0805 29.6585 53.7413 29.0771L64.49 18.2564C65.0785 17.593 65.7945 17.0542 66.5955 16.6719C67.3965 16.2897 68.2662 16.0717 69.1532 16.0309C70.0436 16.0721 70.9169 16.2902 71.7218 16.6723C72.5266 17.0544 73.247 17.593 73.8407 18.2564L84.6379 29.0529C85.2897 29.6352 85.818 30.3419 86.1914 31.1313C86.5648 31.9207 86.7758 32.7768 86.8119 33.6489C86.7889 34.5271 86.5863 35.3912 86.2167 36.1885C85.847 36.9857 85.318 37.6992 84.6622 38.2853Z" fill="#EFF7FB"/>
<path d="M72.829 35.4544L79.3741 33.3048L77.7378 28.9132L74.4652 30.3911L71.8963 31.5499C72.2052 31.0166 72.3664 30.4069 72.3626 29.7865V22.7247L67.8056 22.9598L68.1738 26.5957L68.5174 30.1308C68.1028 29.4707 67.4784 28.9782 66.7502 28.7369L60.2051 26.5117L59.0842 31.0209L62.545 31.785L65.8175 32.5239C65.1125 32.739 64.4986 33.1916 64.0749 33.8086L59.9842 39.5101L63.7967 42.088L65.5803 38.9475L67.3474 35.8995C67.3086 36.6835 67.5339 37.4574 67.9856 38.0911L72.0108 43.8261L75.5288 40.8872L73.1562 38.175L70.8573 35.5132C71.5047 35.7022 72.1933 35.6817 72.829 35.4544Z" fill="#EFF7FB"/>
<path d="M107.551 31.5523C107.511 29.5077 107.85 27.4734 108.551 25.5523C109.134 23.9601 110.035 22.5036 111.201 21.2723C112.269 20.1563 113.565 19.2832 115.001 18.7123C116.422 18.1381 117.939 17.8395 119.471 17.8323C122.971 17.8323 125.661 18.9323 127.531 21.1123C129.401 23.2923 130.331 26.6323 130.331 31.1123V31.8823C130.347 32.1754 130.347 32.4692 130.331 32.7623H112.411C112.437 35.0298 113.27 37.2139 114.761 38.9223C116.134 40.3156 118.271 41.0123 121.171 41.0123C122.56 41.0405 123.947 40.8961 125.301 40.5823C126.167 40.3827 127.013 40.1083 127.831 39.7623L128.481 43.6623C127.523 44.1103 126.516 44.4459 125.481 44.6623C123.896 45.0166 122.275 45.1844 120.651 45.1623C118.645 45.2156 116.647 44.8759 114.771 44.1623C113.215 43.5391 111.82 42.5716 110.691 41.3323C109.603 40.0784 108.798 38.605 108.331 37.0123C107.792 35.2432 107.529 33.4016 107.551 31.5523ZM125.471 29.0123C125.585 27.1534 125.027 25.3154 123.901 23.8323C123.364 23.1701 122.679 22.6439 121.9 22.2964C121.122 21.9488 120.272 21.7899 119.421 21.8323C118.442 21.8141 117.473 22.0265 116.591 22.4523C115.788 22.827 115.068 23.3572 114.471 24.0123C113.896 24.693 113.449 25.4722 113.151 26.3123C112.814 27.1808 112.586 28.0877 112.471 29.0123H125.471Z" fill="#EFF7FB"/>
<path d="M157.365 43.4874C156.294 43.7574 154.885 44.0374 153.135 44.3374C151.124 44.6572 149.09 44.8077 147.055 44.7874C145.327 44.8366 143.607 44.5409 141.995 43.9174C140.7 43.3876 139.563 42.5335 138.695 41.4374C137.832 40.3201 137.218 39.0313 136.894 37.6574C136.511 36.0765 136.326 34.454 136.345 32.8274V18.2074H140.995V31.8274C140.995 34.994 141.495 37.264 142.495 38.6374C143.495 40.0107 145.181 40.7107 147.555 40.7374C148.055 40.7374 148.555 40.7374 149.105 40.6874C149.655 40.6374 150.105 40.6074 150.605 40.5574L151.885 40.4074C152.164 40.3835 152.439 40.3265 152.705 40.2374V18.2374H157.365V43.4874Z" fill="#EFF7FB"/>
<path d="M163.365 19.5229C164.425 19.2529 165.845 18.9629 167.615 18.6629C169.635 18.3439 171.679 18.1933 173.725 18.2129C175.483 18.161 177.233 18.4601 178.874 19.0929C180.147 19.6172 181.263 20.4611 182.115 21.5429C182.977 22.6454 183.581 23.9266 183.885 25.2929C184.229 26.8896 184.397 28.5194 184.385 30.1529V44.7929H179.725V31.1829C179.746 29.8059 179.639 28.4299 179.404 27.0729C179.248 26.0794 178.88 25.1312 178.325 24.2929C177.828 23.5926 177.13 23.0591 176.325 22.7629C175.327 22.426 174.277 22.267 173.225 22.2929C172.725 22.2929 172.224 22.2929 171.674 22.2929C171.124 22.2929 170.625 22.3629 170.145 22.4129C169.665 22.4629 169.224 22.5229 168.844 22.5929L168.014 22.7429V44.7429H163.365V19.5229Z" fill="#EFF7FB"/>
<path d="M199.379 43.0688L192.849 36.4887C189.539 33.1187 189.589 29.8588 192.849 26.5388L199.379 19.9687C202.689 16.5987 206.059 16.6487 209.379 19.9687L215.959 26.5388C219.219 29.8088 219.269 33.1787 215.959 36.4887L209.379 43.0688C206.059 46.3388 202.689 46.3888 199.379 43.0688ZM206.379 23.2287C206.146 22.9183 205.844 22.6663 205.497 22.4927C205.15 22.3191 204.767 22.2287 204.379 22.2287C203.991 22.2287 203.608 22.3191 203.261 22.4927C202.914 22.6663 202.612 22.9183 202.379 23.2287L196.129 29.5388C194.789 30.8788 194.789 32.1588 196.129 33.5388L202.379 39.8487C202.612 40.1592 202.914 40.4112 203.261 40.5848C203.608 40.7584 203.991 40.8487 204.379 40.8487C204.767 40.8487 205.15 40.7584 205.497 40.5848C205.844 40.4112 206.146 40.1592 206.379 39.8487L212.699 33.5388C213.006 33.3035 213.255 33.0007 213.426 32.6539C213.597 32.3071 213.686 31.9255 213.686 31.5388C213.686 31.152 213.597 30.7705 213.426 30.4236C213.255 30.0768 213.006 29.774 212.699 29.5388L206.379 23.2287Z" fill="#EFF7FB"/>
<path d="M257.583 18.6629C255.562 18.3439 253.518 18.1933 251.473 18.2129C249.711 18.161 247.957 18.4601 246.313 19.0929C245.073 19.5978 243.979 20.4058 243.133 21.4429C242.281 20.4069 241.185 19.5993 239.943 19.0929C238.298 18.4601 236.544 18.161 234.783 18.2129C232.737 18.1933 230.693 18.3439 228.673 18.6629C226.903 18.9629 225.493 19.2529 224.423 19.5229V44.7929H229.073V22.7929L229.903 22.6429C230.283 22.5729 230.723 22.5129 231.203 22.4629C231.683 22.4129 232.203 22.3729 232.733 22.3429C233.263 22.3129 233.783 22.3429 234.283 22.3429C235.336 22.317 236.385 22.476 237.383 22.8129C238.194 23.093 238.905 23.6082 239.423 24.2929C239.95 25.1379 240.291 26.0856 240.423 27.0729C240.661 28.4295 240.772 29.8056 240.753 31.1829V44.7929H245.423V31.1829C245.404 29.8056 245.514 28.4295 245.753 27.0729C245.918 26.077 246.297 25.1287 246.863 24.2929C247.363 23.596 248.059 23.0635 248.863 22.7629C249.861 22.426 250.91 22.267 251.963 22.2929C252.463 22.2929 252.963 22.2929 253.513 22.2929C254.063 22.2929 254.563 22.3629 255.043 22.4129C255.523 22.4629 255.963 22.5229 256.343 22.5929L257.173 22.7429V44.7429H261.823V19.5229C260.763 19.2929 259.353 18.9629 257.583 18.6629Z" fill="#EFF7FB"/>
<path d="M272.473 44.515H267.823V23.145C267.823 21.9108 268.312 20.727 269.184 19.8534C270.056 18.9798 271.239 18.4876 272.473 18.485V44.515Z" fill="#EFF7FB"/>
<path d="M288.706 17.8867C290.314 17.8483 291.915 18.0955 293.436 18.6167C294.605 19.0173 295.654 19.7039 296.489 20.6139C297.324 21.5239 297.918 22.6284 298.216 23.8267C298.559 25.1322 298.727 26.4772 298.716 27.8267V44.1167L297.036 44.3967C296.326 44.5067 295.516 44.6167 294.616 44.7167C293.716 44.8167 292.736 44.9067 291.686 44.9967C290.636 45.0867 289.586 45.1167 288.556 45.1167C287.2 45.1259 285.847 44.9748 284.526 44.6667C283.378 44.4055 282.291 43.9232 281.326 43.2467C280.415 42.5828 279.692 41.6939 279.226 40.6667C278.695 39.4511 278.439 38.133 278.476 36.8067C278.441 35.5189 278.741 34.2439 279.346 33.1067C279.919 32.0878 280.737 31.2283 281.726 30.6067C282.803 29.94 283.987 29.4662 285.226 29.2067C286.609 28.902 288.021 28.7511 289.436 28.7567C289.921 28.7558 290.405 28.7792 290.886 28.8267C291.386 28.8767 291.886 28.9467 292.316 29.0267L293.486 29.2567C293.722 29.2942 293.956 29.3442 294.186 29.4067V28.0667C294.186 27.3037 294.106 26.5429 293.946 25.7967C293.79 25.0724 293.48 24.3902 293.036 23.7967C292.577 23.183 291.967 22.6975 291.266 22.3867C290.338 22.0054 289.339 21.8281 288.336 21.8667C286.996 21.8547 285.658 21.9618 284.336 22.1867C283.458 22.3349 282.594 22.5625 281.756 22.8667L281.146 19.0667C282.115 18.697 283.121 18.4354 284.146 18.2867C285.652 18.0196 287.178 17.8858 288.706 17.8867ZM289.106 41.2167C290.206 41.2167 291.186 41.2167 292.036 41.1367C292.749 41.1051 293.458 41.0148 294.156 40.8667V33.0667C293.64 32.8464 293.094 32.7016 292.536 32.6367C291.632 32.515 290.719 32.4582 289.806 32.4667C289.061 32.4699 288.316 32.52 287.576 32.6167C286.831 32.7078 286.106 32.9171 285.426 33.2367C284.792 33.5469 284.236 33.9944 283.796 34.5467C283.34 35.1752 283.11 35.9406 283.146 36.7167C283.076 37.3881 283.188 38.0661 283.471 38.6788C283.755 39.2914 284.199 39.816 284.756 40.1967C286.086 40.9284 287.59 41.2813 289.106 41.2167Z" fill="#EFF7FB"/>
</svg>
